<?xml version="1.0" standalone="no"?>
<!DOCTYPE svg PUBLIC "-//W3C//DTD SVG 20010904//EN"
 "http://www.w3.org/TR/2001/REC-SVG-20010904/DTD/svg10.dtd">
<svg version="1.0" xmlns="http://www.w3.org/2000/svg"
 width="512.000000pt" height="512.000000pt" viewBox="0 0 512.000000 512.000000"
 preserveAspectRatio="xMidYMid meet">

<g transform="translate(0.000000,512.000000) scale(0.100000,-0.100000)"
fill="#000000" stroke="none">
<path d="M1920 4947 c-49 -16 -133 -102 -148 -153 -7 -23 -12 -67 -12 -98 l0
-56 -616 0 c-455 0 -627 -3 -658 -12 -55 -16 -138 -99 -154 -154 -9 -31 -12
-274 -12 -986 l0 -946 -30 -12 c-42 -17 -104 -90 -118 -138 -17 -57 -17 -2008
0 -2066 16 -55 99 -138 154 -154 32 -9 542 -12 2236 -12 2475 0 2252 -8 2331
80 24 26 49 66 55 88 17 56 17 2007 0 2064 -14 48 -76 121 -118 138 l-30 12 0
946 c0 701 -3 955 -12 984 -6 22 -31 62 -55 88 -74 83 -49 80 -755 80 l-618 0
0 56 c0 81 -18 129 -67 184 -74 83 -50 80 -737 79 -408 -1 -612 -5 -636 -12z
m1255 -172 c21 -20 25 -34 25 -80 l0 -55 -640 0 -640 0 0 55 c0 46 4 60 25 80
l24 25 591 0 591 0 24 -25z m1440 -320 l25 -24 0 -936 0 -935 -80 0 -80 0 0
855 0 856 -25 24 -24 25 -1871 0 -1871 0 -24 -25 -25 -24 0 -856 0 -855 -80 0
-80 0 0 935 0 936 25 24 24 25 2031 0 2031 0 24 -25z m-295 -1095 l0 -800
-400 0 -400 0 0 320 0 320 55 0 c78 0 105 27 105 105 l0 55 39 0 c36 0 39 -2
45 -35 8 -43 50 -94 93 -111 21 -9 72 -14 143 -14 104 0 112 1 135 25 l25 24
0 351 0 351 -25 24 c-23 24 -31 25 -135 25 -71 0 -122 -5 -143 -14 -43 -17
-85 -68 -93 -111 -6 -33 -9 -35 -44 -35 -35 0 -38 2 -44 35 -9 47 -59 102
-105 116 -25 7 -128 10 -311 7 -262 -4 -279 -6 -352 -30 -119 -40 -204 -92
-294 -182 -90 -91 -143 -176 -182 -294 -21 -65 -25 -102 -30 -239 l-5 -161 26
-26 c26 -26 69 -34 95 -17 7 4 72 82 145 172 94 117 144 170 175 187 l42 23 0
-91 c0 -83 2 -93 25 -115 20 -21 34 -25 80 -25 l55 0 0 -320 0 -320 -560 0
-560 0 0 156 0 157 38 31 c20 17 67 61 104 99 238 242 235 639 -7 881 -80 81
-168 137 -216 138 -23 1 -39 -6 -56 -26 -23 -27 -23 -30 -23 -270 l0 -243 -80
-53 -80 -53 -80 53 -80 53 0 242 c0 230 -1 244 -21 269 -34 43 -82 36 -173
-24 -219 -147 -325 -407 -271 -665 31 -146 111 -268 263 -396 l42 -36 0 -157
0 -156 -240 0 -240 0 0 800 0 800 1760 0 1760 0 0 -800z m-800 425 c0 -46 4
-60 25 -80 23 -24 28 -25 175 -25 147 0 152 1 175 25 21 20 25 34 25 80 l0 55
40 0 40 0 0 -240 0 -240 -40 0 -40 0 0 55 c0 46 -4 60 -25 80 -23 24 -28 25
-175 25 -147 0 -152 -1 -175 -25 -21 -20 -25 -34 -25 -80 l0 -55 -240 0 -240
0 0 91 c0 88 -1 92 -31 121 -28 29 -33 30 -87 25 -31 -3 -74 -11 -94 -17 -60
-18 -151 -85 -203 -151 -27 -34 -51 -57 -53 -51 -6 18 26 109 62 176 40 77
136 172 214 214 113 60 178 71 440 71 l232 1 0 -55z m-2232 -392 c1 -2 66 -46
144 -98 84 -56 153 -95 168 -95 28 0 296 174 311 201 5 10 9 102 9 205 l0 188
34 -33 c44 -42 91 -131 111 -206 43 -165 -11 -343 -139 -461 -33 -31 -77 -71
-98 -90 -56 -53 -68 -101 -68 -286 l0 -158 -160 0 -160 0 0 158 c0 185 -12
233 -68 286 -21 19 -65 59 -98 90 -188 173 -204 471 -36 658 l37 41 6 -199 c3
-109 6 -200 7 -201z m2072 -513 l0 -320 -80 0 -80 0 0 320 0 320 80 0 80 0 0
-320z m1415 -505 l25 -24 0 -991 0 -991 -25 -24 -24 -25 -2191 0 -2191 0 -24
25 -25 24 0 991 0 991 25 24 24 25 2191 0 2191 0 24 -25z"/>
<path d="M1760 2227 c-49 -16 -133 -102 -148 -153 -28 -94 -8 -169 63 -239 31
-32 65 -55 91 -63 31 -9 233 -12 796 -12 859 0 816 -4 891 80 90 100 90 220 0
320 -75 84 -31 80 -897 79 -524 -1 -772 -4 -796 -12z m1575 -172 c33 -32 33
-78 0 -110 l-24 -25 -751 0 -751 0 -24 25 c-16 15 -25 36 -25 55 0 19 9 40 25
55 l24 25 751 0 751 0 24 -25z"/>
</g>
</svg>
